<?xml version="1.0" standalone="no"?>
<!DOCTYPE svg PUBLIC "-//W3C//DTD SVG 20010904//EN"
 "http://www.w3.org/TR/2001/REC-SVG-20010904/DTD/svg10.dtd">
<svg version="1.0" xmlns="http://www.w3.org/2000/svg"
 width="512.000000pt" height="512.000000pt" viewBox="0 0 512.000000 512.000000"
 preserveAspectRatio="xMidYMid meet">
<metadata>
Created by potrace 1.14, written by Peter Selinger 2001-2017
</metadata>
<g transform="translate(0.000000,512.000000) scale(0.100000,-0.100000)"
fill="#000000" stroke="none">
<path d="M2379 5116 c-2 -2 -38 -6 -79 -10 -64 -6 -213 -30 -315 -51 -58 -12
-202 -55 -291 -86 -399 -141 -790 -409 -1064 -730 -104 -121 -106 -124 -183
-236 -198 -291 -331 -605 -396 -936 -40 -202 -46 -268 -45 -517 0 -183 3 -241
19 -345 3 -16 7 -43 9 -60 31 -220 148 -573 253 -763 14 -26 37 -67 50 -92 45
-81 155 -242 234 -339 247 -306 595 -575 934 -723 39 -16 84 -36 100 -44 108
-49 389 -127 541 -149 22 -4 50 -8 64 -11 110 -19 464 -26 606 -12 82 9 265
37 274 43 4 2 22 7 41 10 187 32 528 169 744 300 697 421 1154 1141 1232 1940
8 75 10 397 4 480 -2 28 -7 73 -12 100 -4 28 -10 66 -13 85 -2 19 -10 60 -16
90 -6 30 -14 66 -16 80 -21 106 -95 325 -158 468 -156 351 -417 691 -721 937
-304 246 -643 414 -1015 503 -69 17 -145 33 -170 36 -25 3 -56 8 -70 11 -75
13 -134 17 -326 21 -116 2 -213 2 -215 0z m491 -175 c297 -46 509 -111 756
-232 169 -83 361 -210 499 -329 86 -74 269 -268 334 -354 180 -238 308 -485
391 -751 21 -66 66 -250 74 -305 3 -19 11 -66 17 -105 6 -38 13 -160 14 -270
2 -176 -2 -253 -19 -370 -3 -16 -7 -50 -11 -75 -28 -206 -152 -554 -270 -760
-21 -36 -43 -74 -49 -85 -27 -50 -156 -227 -215 -295 -245 -285 -526 -495
-876 -652 -123 -55 -371 -133 -485 -152 -19 -3 -45 -8 -57 -10 -11 -3 -43 -7
-70 -11 -26 -4 -59 -9 -73 -12 -45 -9 -444 -11 -497 -3 -29 5 -83 12 -120 15
-37 4 -71 9 -75 12 -4 2 -22 6 -40 8 -102 13 -355 93 -508 161 -415 183 -774
485 -1028 865 -178 266 -328 642 -367 919 -3 25 -11 74 -17 110 -13 80 -19
444 -8 525 5 33 11 83 14 110 18 144 79 380 136 525 261 666 785 1173 1450
1404 191 67 307 92 590 129 57 8 441 -2 510 -12z"/>
<path d="M1255 3780 c-1 -3 109 -275 245 -605 136 -330 293 -712 349 -850 56
-137 108 -263 116 -280 7 -16 25 -59 39 -95 15 -36 31 -76 37 -90 6 -14 57
-137 114 -275 l102 -250 297 0 c164 0 301 2 305 5 5 3 122 282 261 620 139
338 258 629 265 645 8 17 34 82 60 145 25 63 50 124 55 135 5 11 43 103 85
205 41 102 80 194 85 205 5 11 30 72 56 135 25 63 53 131 61 150 8 19 19 44
23 55 4 11 19 48 33 82 15 34 23 64 19 66 -4 2 -146 3 -316 3 l-308 -1 -39
-100 c-22 -55 -44 -109 -49 -120 -32 -72 -266 -686 -410 -1076 -95 -255 -174
-468 -177 -473 -7 -10 -10 -2 -198 516 -80 218 -179 484 -220 590 -194 491
-258 653 -262 658 -6 6 -624 7 -628 0z"/>
</g>
</svg>
